<svg xmlns="http://www.w3.org/2000/svg" width="130" height="26" fill="none" viewBox="0 0 130 26"><path fill="#fff" d="M112.98.36h3.61l4.18 17.3 4.16-17.3h3.19l-5.82 25.3h-3.08L112.98.35Zm-1.46 0h3.44l.54 16.68v8.61h-3.98V.36Zm15.02 0H130v25.3h-3.96v-8.62l.5-16.68ZM98.93.36l3.12 11.4 3.1-11.4h4.47l-5.5 16.1v9.2h-4.15v-9.2L94.47.36h4.46ZM93.94 12.37v10.42c-.3.38-.72.82-1.28 1.33A7.77 7.77 0 0 1 87.22 26a6.4 6.4 0 0 1-5.47-2.66 9.89 9.89 0 0 1-1.5-3.37 19.58 19.58 0 0 1-.52-4.8v-4.31c0-1.83.16-3.43.5-4.78.33-1.37.82-2.5 1.45-3.4.64-.9 1.4-1.58 2.28-2.02a6.7 6.7 0 0 1 3-.66c1.54 0 2.8.32 3.79.96.99.63 1.74 1.58 2.25 2.83s.82 2.78.92 4.6h-3.97a9 9 0 0 0-.44-2.5 2.44 2.44 0 0 0-.91-1.29c-.4-.26-.9-.4-1.54-.4a2.7 2.7 0 0 0-1.41.37c-.4.23-.74.61-1.02 1.14a6.9 6.9 0 0 0-.6 2.05c-.13.84-.2 1.86-.2 3.06v4.34c0 1.2.08 2.21.23 3.06.15.84.37 1.53.66 2.07.3.53.67.92 1.12 1.16.46.23 1 .35 1.62.35.5 0 .9-.07 1.2-.2.3-.12.53-.25.71-.4l.46-.34V16.2H86.9v-3.83h7.04ZM63.11.36h6.56c1.37 0 2.54.3 3.5.87A5.6 5.6 0 0 1 75.4 3.8c.52 1.14.77 2.54.77 4.2a12 12 0 0 1-.44 3.52c-.3.96-.73 1.76-1.28 2.4a6.33 6.33 0 0 1-1.99 1.54l-1.25.92h-5.32l-.02-4.22h3.7c.56 0 1.03-.15 1.4-.45.37-.32.64-.75.82-1.3.19-.57.28-1.23.28-1.99 0-.8-.08-1.48-.25-2.05a2.56 2.56 0 0 0-.77-1.32c-.35-.3-.8-.46-1.37-.46h-2.44v21.06H63.1V.36Zm9.29 25.3-3.75-11.28 4.31-.02 3.84 11.05v.24h-4.4ZM59.69 21.45v4.2h-8.9v-4.2h8.9ZM52.07.36v25.3h-4.12V.35h4.12Zm6.42 10.25v4.08h-7.7v-4.08h7.7ZM59.66.36V4.6h-8.87V.36h8.87ZM39.57 16.74h-4.19v-4.22h4.2c.57 0 1.05-.16 1.41-.48.38-.33.65-.77.82-1.34.16-.58.25-1.23.25-1.95 0-.73-.09-1.4-.27-2.03a3.57 3.57 0 0 0-.8-1.54c-.35-.4-.83-.6-1.42-.6h-2.86v21.07h-4.1V.36h6.96a5.9 5.9 0 0 1 3.56 1.08c.99.72 1.75 1.7 2.27 2.97.54 1.25.8 2.69.8 4.3 0 1.64-.26 3.06-.8 4.26a6.27 6.27 0 0 1-2.27 2.78c-1 .66-2.18 1-3.56 1ZM25.35.36h4.1v17.37c0 1.95-.29 3.53-.87 4.76a5.75 5.75 0 0 1-2.37 2.68 7.09 7.09 0 0 1-3.47.83 7.2 7.2 0 0 1-3.5-.83 5.72 5.72 0 0 1-2.4-2.68 11.5 11.5 0 0 1-.83-4.76V.36h4.1v17.37c0 1.1.1 1.95.3 2.54.2.59.5 1 .88 1.21.4.21.88.32 1.45.32.58 0 1.06-.1 1.43-.32.38-.22.67-.62.87-1.21.2-.6.31-1.44.31-2.54V.36ZM9.27 19c0-.45-.03-.86-.1-1.23-.06-.37-.2-.71-.42-1.03-.2-.31-.5-.62-.9-.93-.4-.32-.92-.64-1.55-.98-.76-.4-1.5-.8-2.21-1.25-.71-.45-1.35-.97-1.93-1.56A6.72 6.72 0 0 1 .8 9.93 7.56 7.56 0 0 1 .3 7.1c0-1.07.16-2.04.47-2.9A6.39 6.39 0 0 1 4.16.52C4.95.2 5.82.02 6.79.02c1.3 0 2.44.33 3.4 1 .96.68 1.7 1.6 2.23 2.77a9.6 9.6 0 0 1 .8 4.03h-4.1a6.4 6.4 0 0 0-.25-1.9 2.66 2.66 0 0 0-.78-1.3 2.01 2.01 0 0 0-1.37-.47c-.53 0-.96.13-1.31.4-.34.26-.59.6-.76 1.06-.16.44-.24.94-.24 1.5 0 .41.08.79.24 1.12.17.33.4.62.69.89.29.25.63.5 1.03.75.4.24.84.48 1.32.7.92.46 1.74.96 2.46 1.5.7.53 1.3 1.14 1.78 1.8.48.67.84 1.41 1.08 2.25a10.16 10.16 0 0 1-.08 5.73A5.76 5.76 0 0 1 9.6 25.5a7.41 7.41 0 0 1-5.33.02 6.32 6.32 0 0 1-3.73-4.1C.18 20.35 0 19.11 0 17.67h4.12c0 .76.06 1.42.18 1.96s.3.96.56 1.29c.26.31.56.55.93.71.37.15.8.23 1.28.23.54 0 .97-.13 1.3-.39.32-.25.55-.6.7-1.02.13-.43.2-.92.2-1.46Z"/></svg>